<svg width="122" height="26" viewBox="0 0 122 26" fill="none" xmlns="http://www.w3.org/2000/svg">
  <path
    d="M20.92 7.944C20.7493 8.456 20.5253 9.128 20.248 9.96C19.992 10.7707 19.704 11.6667 19.384 12.648C19.064 13.6293 18.7333 14.6747 18.392 15.784C18.0507 16.872 17.6987 17.9387 17.336 18.984C16.9947 20.0293 16.6533 21.032 16.312 21.992C15.9707 22.9307 15.6613 23.752 15.384 24.456C15.2987 24.6267 15.1173 24.7653 14.84 24.872C14.584 24.9573 14.168 25 13.592 25C13.2293 25 12.856 24.9787 12.472 24.936C12.088 24.8933 11.7253 24.808 11.384 24.68C11.064 24.552 10.776 24.3813 10.52 24.168C10.2853 23.9547 10.104 23.688 9.976 23.368C9.656 22.28 9.34667 21.0747 9.048 19.752C8.77067 18.408 8.49333 17.0427 8.216 15.656C7.93867 14.2693 7.66133 12.9147 7.384 11.592C7.128 10.248 6.86133 9.032 6.584 7.944C6.584 8.24266 6.57333 8.75467 6.552 9.48C6.53067 10.2053 6.50933 11.048 6.488 12.008C6.46667 12.968 6.43467 14.0027 6.392 15.112C6.37067 16.2213 6.34933 17.3093 6.328 18.376C6.30667 19.4213 6.28533 20.4027 6.264 21.32C6.24267 22.216 6.232 22.952 6.232 23.528C6.232 24.168 6.18933 24.5733 6.104 24.744C6.04 24.9147 5.912 25 5.72 25H3.96C2.744 25 1.88 24.7653 1.368 24.296C0.877333 23.8053 0.632 23.0907 0.632 22.152C0.632 21.896 0.642667 21.4693 0.664 20.872C0.706667 20.2533 0.76 19.528 0.824 18.696C0.888 17.864 0.952 16.9573 1.016 15.976C1.10133 14.9733 1.18667 13.96 1.272 12.936C1.37867 11.5493 1.464 10.3973 1.528 9.48C1.61333 8.54133 1.67733 7.76267 1.72 7.144C1.76267 6.52533 1.79467 6.024 1.816 5.64C1.85867 5.256 1.88 4.91467 1.88 4.616C1.90133 4.31733 1.912 4.04 1.912 3.784C1.93333 3.50666 1.944 3.16533 1.944 2.76C1.944 2.58933 2.008 2.472 2.136 2.408C2.264 2.32267 2.38133 2.28 2.488 2.28H6.968C7.8 2.28 8.48267 2.41867 9.016 2.696C9.54933 2.952 9.98667 3.35733 10.328 3.912C10.6693 4.46667 10.9467 5.192 11.16 6.088C11.3733 6.96267 11.5653 8.008 11.736 9.224C11.928 10.44 12.1307 11.848 12.344 13.448C12.5787 15.0267 12.8773 16.808 13.24 18.792C13.5813 17.4693 13.8693 16.3707 14.104 15.496C14.3387 14.6213 14.5307 13.896 14.68 13.32C14.8507 12.7227 14.9893 12.232 15.096 11.848C15.2027 11.464 15.2987 11.112 15.384 10.792C15.4693 10.4507 15.5653 10.088 15.672 9.704C15.7787 9.32 15.9067 8.84 16.056 8.264C16.2053 7.688 16.3867 6.97333 16.6 6.12C16.8347 5.24533 17.1227 4.14667 17.464 2.824C17.5067 2.696 17.5813 2.57866 17.688 2.472C17.7947 2.344 17.9867 2.28 18.264 2.28H23.256C23.9387 2.28 24.4827 2.35467 24.888 2.504C25.3147 2.632 25.6453 2.824 25.88 3.08C26.1147 3.336 26.2747 3.656 26.36 4.04C26.4453 4.40267 26.488 4.82933 26.488 5.32C26.488 5.81067 26.456 6.61067 26.392 7.72C26.3493 8.808 26.2747 10.0453 26.168 11.432C26.0827 12.7973 25.9867 14.216 25.88 15.688C25.7947 17.16 25.6987 18.5253 25.592 19.784C25.5067 21.0427 25.432 22.1093 25.368 22.984C25.304 23.8587 25.2613 24.3707 25.24 24.52C25.2187 24.6907 25.176 24.8187 25.112 24.904C25.048 24.968 24.92 25 24.728 25H22.968C21.752 25 20.888 24.7653 20.376 24.296C19.8853 23.8053 19.64 23.176 19.64 22.408C19.64 22.1733 19.6613 21.7467 19.704 21.128C19.768 20.5093 19.8427 19.784 19.928 18.952C20.0133 18.12 20.1093 17.2133 20.216 16.232C20.3227 15.2293 20.4187 14.2373 20.504 13.256C20.5893 12.2747 20.664 11.3253 20.728 10.408C20.8133 9.46933 20.8773 8.648 20.92 7.944ZM36.3863 25.32C34.9143 25.32 33.6876 25.1173 32.7063 24.712C31.7463 24.2853 30.9783 23.7093 30.4023 22.984C29.8263 22.2587 29.4209 21.416 29.1863 20.456C28.9516 19.4747 28.8343 18.4293 28.8343 17.32C28.8343 16.04 28.9836 14.792 29.2823 13.576C29.6023 12.3387 30.1356 11.24 30.8823 10.28C31.6289 9.32 32.6103 8.552 33.8263 7.976C35.0636 7.37867 36.5996 7.08 38.4343 7.08C41.1223 7.08 43.0423 7.74133 44.1943 9.064C45.3676 10.3653 45.9543 12.2 45.9543 14.568C45.9543 15.2293 45.9009 15.9653 45.7943 16.776C45.7089 17.5653 45.5276 18.3547 45.2503 19.144C44.9943 19.9333 44.6316 20.7013 44.1623 21.448C43.7143 22.1947 43.1383 22.856 42.4343 23.432C41.7303 24.008 40.8769 24.4667 39.8743 24.808C38.8929 25.1493 37.7303 25.32 36.3863 25.32ZM37.8903 11.336C37.0796 11.336 36.4289 11.5493 35.9383 11.976C35.4689 12.3813 35.1063 12.8827 34.8503 13.48C34.6156 14.056 34.4556 14.6747 34.3703 15.336C34.3063 15.976 34.2743 16.52 34.2743 16.968C34.2743 18.376 34.4983 19.4107 34.9463 20.072C35.3943 20.7333 36.0343 21.064 36.8663 21.064C37.6129 21.064 38.2209 20.8293 38.6903 20.36C39.1809 19.8907 39.5543 19.3253 39.8103 18.664C40.0876 18.0027 40.2689 17.3093 40.3543 16.584C40.4609 15.8587 40.5143 15.2507 40.5143 14.76C40.5143 13.6933 40.3116 12.8613 39.9063 12.264C39.5223 11.6453 38.8503 11.336 37.8903 11.336ZM55.5113 25.32C54.0393 25.32 52.8126 25.1173 51.8313 24.712C50.8713 24.2853 50.1033 23.7093 49.5273 22.984C48.9513 22.2587 48.5459 21.416 48.3113 20.456C48.0766 19.4747 47.9593 18.4293 47.9593 17.32C47.9593 16.04 48.1086 14.792 48.4073 13.576C48.7273 12.3387 49.2606 11.24 50.0073 10.28C50.7539 9.32 51.7353 8.552 52.9513 7.976C54.1886 7.37867 55.7246 7.08 57.5593 7.08C60.2473 7.08 62.1673 7.74133 63.3193 9.064C64.4926 10.3653 65.0793 12.2 65.0793 14.568C65.0793 15.2293 65.0259 15.9653 64.9193 16.776C64.8339 17.5653 64.6526 18.3547 64.3753 19.144C64.1193 19.9333 63.7566 20.7013 63.2873 21.448C62.8393 22.1947 62.2633 22.856 61.5593 23.432C60.8553 24.008 60.0019 24.4667 58.9993 24.808C58.0179 25.1493 56.8553 25.32 55.5113 25.32ZM57.0153 11.336C56.2046 11.336 55.5539 11.5493 55.0633 11.976C54.5939 12.3813 54.2313 12.8827 53.9753 13.48C53.7406 14.056 53.5806 14.6747 53.4953 15.336C53.4313 15.976 53.3993 16.52 53.3993 16.968C53.3993 18.376 53.6233 19.4107 54.0713 20.072C54.5193 20.7333 55.1593 21.064 55.9913 21.064C56.7379 21.064 57.3459 20.8293 57.8153 20.36C58.3059 19.8907 58.6793 19.3253 58.9353 18.664C59.2126 18.0027 59.3939 17.3093 59.4793 16.584C59.5859 15.8587 59.6393 15.2507 59.6393 14.76C59.6393 13.6933 59.4366 12.8613 59.0313 12.264C58.6473 11.6453 57.9753 11.336 57.0153 11.336ZM73.3243 25.32C72.4923 25.32 71.6923 25.1707 70.9243 24.872C70.1776 24.5733 69.5163 24.104 68.9403 23.464C68.3856 22.824 67.9376 22.0133 67.5963 21.032C67.2763 20.0507 67.1163 18.8667 67.1163 17.48C67.1163 16.8613 67.1589 16.1787 67.2443 15.432C67.3296 14.664 67.4789 13.896 67.6923 13.128C67.9056 12.36 68.2043 11.6133 68.5883 10.888C68.9723 10.1627 69.4523 9.52267 70.0283 8.968C70.6256 8.392 71.3296 7.93333 72.1403 7.592C72.9723 7.25067 73.9429 7.08 75.0523 7.08C76.1189 7.08 76.9723 7.272 77.6123 7.656C78.2736 8.01867 78.6896 8.65867 78.8603 9.576C78.9029 8.744 78.9456 8.01867 78.9883 7.4C79.0309 6.78133 79.0629 6.20533 79.0843 5.672C79.1269 5.13867 79.1696 4.60533 79.2123 4.072C79.2549 3.53867 79.2976 2.93067 79.3403 2.248C79.3616 1.77867 79.4149 1.50133 79.5003 1.416C79.5429 1.37333 79.5963 1.352 79.6603 1.352C79.7243 1.33067 79.8416 1.32 80.0123 1.32H81.2603C81.9003 1.32 82.4336 1.39467 82.8603 1.544C83.2869 1.69333 83.6283 1.896 83.8843 2.152C84.1403 2.408 84.3216 2.70667 84.4283 3.048C84.5349 3.368 84.5883 3.70933 84.5883 4.072C84.5883 4.072 84.5669 4.33867 84.5243 4.872C84.4816 5.40533 84.4283 6.12 84.3643 7.016C84.3003 7.89067 84.2256 8.89333 84.1403 10.024C84.0549 11.1547 83.9696 12.328 83.8843 13.544C83.7989 14.7387 83.7136 15.9333 83.6283 17.128C83.5429 18.3013 83.4576 19.3893 83.3723 20.392C83.2869 21.3733 83.2123 22.2267 83.1483 22.952C83.1056 23.656 83.0736 24.1253 83.0522 24.36C83.0096 24.616 82.9563 24.7867 82.8923 24.872C82.8283 24.9573 82.6469 25 82.3483 25H81.1963C80.7483 25 80.3216 24.968 79.9163 24.904C79.5323 24.8187 79.1909 24.6907 78.8923 24.52C78.6149 24.328 78.3909 24.0827 78.2203 23.784C78.0709 23.464 77.9963 23.0587 77.9963 22.568C77.6123 23.3787 77.0256 24.04 76.2363 24.552C75.4683 25.064 74.4976 25.32 73.3243 25.32ZM76.1083 11.336C75.0203 11.336 74.2096 11.816 73.6763 12.776C73.1643 13.7147 72.9083 14.984 72.9083 16.584C72.9083 17.1387 72.9403 17.6827 73.0043 18.216C73.0896 18.7493 73.2283 19.2293 73.4203 19.656C73.6123 20.0827 73.8683 20.424 74.1883 20.68C74.5296 20.936 74.9563 21.064 75.4683 21.064C76.3856 21.064 77.1536 20.616 77.7723 19.72C78.3909 18.824 78.7003 17.416 78.7003 15.496C78.7003 14.9627 78.6683 14.4507 78.6043 13.96C78.5403 13.448 78.4123 13 78.2203 12.616C78.0283 12.232 77.7616 11.9227 77.4203 11.688C77.0789 11.4533 76.6416 11.336 76.1083 11.336ZM93.305 15.752L92.697 24.52C92.6757 24.6907 92.6543 24.8187 92.633 24.904C92.633 24.968 92.537 25 92.345 25H90.585C89.3903 25 88.537 24.7653 88.025 24.296C87.513 23.8267 87.257 23.1547 87.257 22.28C87.257 21.8533 87.289 21.128 87.353 20.104C87.417 19.0587 87.5023 17.8747 87.609 16.552C87.7157 15.2293 87.8223 13.832 87.929 12.36C88.0357 10.888 88.1423 9.50133 88.249 8.2C88.3557 6.89867 88.441 5.75733 88.505 4.776C88.569 3.79467 88.601 3.12267 88.601 2.76C88.601 2.44 88.7717 2.28 89.113 2.28H100.377C100.505 2.28 100.622 2.312 100.729 2.376C100.836 2.44 100.889 2.55733 100.889 2.728L100.761 4.616C100.718 5.256 100.537 5.77867 100.217 6.184C99.9183 6.568 99.289 6.76 98.329 6.76H93.913L93.593 11.272H98.137C98.265 11.272 98.3823 11.304 98.489 11.368C98.5957 11.432 98.649 11.5493 98.649 11.72L98.521 13.608C98.4783 14.248 98.297 14.7707 97.977 15.176C97.6783 15.56 97.049 15.752 96.089 15.752H93.305ZM105.077 25C104.415 25 103.871 24.936 103.445 24.808C103.039 24.6587 102.709 24.456 102.453 24.2C102.218 23.944 102.047 23.6347 101.941 23.272C101.855 22.888 101.813 22.4507 101.813 21.96C101.813 21.64 101.823 21.192 101.845 20.616C101.887 20.0187 101.951 19.208 102.037 18.184C102.122 17.1387 102.218 15.8267 102.325 14.248C102.453 12.648 102.602 10.6747 102.773 8.328C102.794 7.85867 102.847 7.58133 102.933 7.496C102.997 7.432 103.167 7.4 103.445 7.4H104.693C105.354 7.4 105.887 7.464 106.293 7.592C106.719 7.72 107.05 7.912 107.285 8.168C107.541 8.424 107.711 8.73333 107.797 9.096C107.903 9.45867 107.957 9.864 107.957 10.312C107.957 10.632 107.935 11.112 107.893 11.752C107.85 12.392 107.786 13.2667 107.701 14.376C107.637 15.464 107.541 16.8293 107.413 18.472C107.285 20.0933 107.125 22.056 106.933 24.36C106.911 24.616 106.858 24.7867 106.773 24.872C106.687 24.9573 106.506 25 106.229 25H105.077ZM102.805 3.624C102.805 2.77067 103.114 2.09867 103.733 1.608C104.351 1.11733 105.183 0.872 106.229 0.872C107.146 0.872 107.807 1.064 108.213 1.448C108.639 1.81067 108.853 2.30133 108.853 2.92C108.853 3.70933 108.554 4.37067 107.957 4.904C107.381 5.416 106.527 5.672 105.397 5.672C103.669 5.672 102.805 4.98933 102.805 3.624ZM117.661 11.72C117.597 12.5307 117.522 13.3307 117.437 14.12C117.373 14.9093 117.309 15.656 117.245 16.36C117.181 17.064 117.127 17.6933 117.085 18.248C117.063 18.8027 117.053 19.2293 117.053 19.528C117.053 20.0827 117.117 20.456 117.245 20.648C117.373 20.8187 117.586 20.904 117.885 20.904C118.119 20.904 118.322 20.8613 118.493 20.776C118.663 20.6907 118.823 20.5947 118.973 20.488C119.122 20.3813 119.25 20.2853 119.357 20.2C119.485 20.1147 119.623 20.072 119.773 20.072C119.922 20.072 120.061 20.1573 120.189 20.328C120.317 20.4987 120.381 20.8933 120.381 21.512C120.381 22.6853 120.061 23.6133 119.421 24.296C118.781 24.9787 117.682 25.32 116.125 25.32C114.589 25.32 113.447 24.968 112.701 24.264C111.975 23.5387 111.613 22.44 111.613 20.968C111.613 20.648 111.623 20.2747 111.645 19.848C111.687 19.4 111.741 18.824 111.805 18.12C111.869 17.416 111.943 16.552 112.029 15.528C112.135 14.504 112.242 13.2347 112.349 11.72H110.653C110.482 11.72 110.375 11.688 110.333 11.624C110.311 11.5387 110.301 11.4213 110.301 11.272L110.397 9.64C110.418 9.36267 110.45 9.096 110.493 8.84C110.557 8.56267 110.663 8.31733 110.813 8.104C110.983 7.89067 111.218 7.72 111.517 7.592C111.815 7.464 112.21 7.4 112.701 7.4C112.85 7.016 113.021 6.55733 113.213 6.024C113.405 5.49067 113.597 4.97867 113.789 4.488C113.981 3.976 114.162 3.54933 114.333 3.208C114.525 2.86667 114.695 2.696 114.845 2.696H115.773C116.669 2.696 117.287 2.97333 117.629 3.528C117.97 4.08267 118.141 4.744 118.141 5.512C118.141 5.93867 118.109 6.568 118.045 7.4H121.405C121.746 7.4 121.917 7.54933 121.917 7.848L121.789 9.576C121.746 10.216 121.565 10.7387 121.245 11.144C120.946 11.528 120.317 11.72 119.357 11.72H117.661Z"
    fill="#6366F1" />
</svg>
  