<svg width="342" height="206" viewBox="0 0 342 206" fill="none" xmlns="http://www.w3.org/2000/svg">
  <mask id="path-1-outside-1_9_106" maskUnits="userSpaceOnUse" x="0" y="0" width="342" height="161"
    fill="black">
    <rect fill="white" width="342" height="161" />
    <path d="M0 0H342V160H0V0Z" />
  </mask>
  <path d="M0 0H342V160H0V0Z" fill="white" />
  <path d="M16 54C16 50.6863 18.6863 48 22 48H26C29.3137 48 32 50.6863 32 54V160H16V54Z"
    fill="#4F46E5" />
  <path d="M65 38C65 34.6863 67.6863 32 71 32H75C78.3137 32 81 34.6863 81 38V160H65V38Z"
    fill="#4338CA" />
  <path d="M114 6C114 2.6863 116.686 0 120 0H124C127.314 0 130 2.68629 130 6V160H114V6Z"
    fill="#312E81" />
  <path d="M163 70C163 66.6863 165.686 64 169 64H173C176.314 64 179 66.6863 179 70V160H163V70Z"
    fill="#6366F1" />
  <path d="M212 102C212 98.6863 214.686 96 218 96H222C225.314 96 228 98.6863 228 102V160H212V102Z"
    fill="#A5B4FC" />
  <path d="M261 86C261 82.6863 263.686 80 267 80H271C274.314 80 277 82.6863 277 86V160H261V86Z"
    fill="#818CF8" />
  <path d="M310 70C310 66.6863 312.686 64 316 64H320C323.314 64 326 66.6863 326 70V160H310V70Z"
    fill="#6366F1" />
  <path d="M342 159H0V161H342V159Z" fill="#D4D4D8" mask="url(#path-1-outside-1_9_106)" />
  <path
    d="M112.223 199.324L106.241 193.342L106.937 192.646L112.308 198.017L115.355 194.971L115.966 195.582L112.223 199.324ZM118.19 193.51C117.2 194.5 116.16 194.449 115.068 193.357L112.505 190.795L113.193 190.107L115.747 192.662C116.114 193.029 116.459 193.227 116.782 193.256C117.11 193.278 117.435 193.128 117.758 192.806C118.108 192.455 118.278 192.053 118.267 191.601C118.25 191.143 118.046 190.718 117.656 190.328L115.314 187.986L116.001 187.299L120.125 191.423L119.455 192.093L118.759 191.397C118.878 191.776 118.886 192.152 118.784 192.526C118.683 192.888 118.485 193.216 118.19 193.51ZM121.411 190.137L117.287 186.013L117.957 185.343L118.662 186.047C118.537 185.651 118.534 185.263 118.653 184.884C118.772 184.505 118.987 184.16 119.298 183.849C120.277 182.871 121.309 182.924 122.395 184.01L124.966 186.581L124.279 187.269L121.75 184.74C121.366 184.355 121.009 184.152 120.681 184.129C120.353 184.095 120.025 184.242 119.697 184.57C119.318 184.949 119.134 185.371 119.145 185.835C119.157 186.287 119.357 186.709 119.748 187.099L122.098 189.449L121.411 190.137ZM128.82 182.727L128.226 182.133L129.592 180.767L125.044 176.219L124.645 177.976L123.831 177.755L124.399 175.184L124.9 174.683L130.288 180.072L131.569 178.79L132.163 179.384L128.82 182.727ZM135.682 176.019C134.974 176.726 134.174 177.017 133.28 176.893C132.386 176.757 131.478 176.228 130.556 175.306C129.521 174.271 128.939 173.264 128.808 172.285C128.678 171.307 128.995 170.436 129.759 169.672C130.064 169.366 130.435 169.126 130.87 168.951C131.312 168.77 131.742 168.69 132.16 168.713L132.449 169.511C132.024 169.505 131.634 169.573 131.278 169.714C130.927 169.85 130.621 170.048 130.361 170.308C129.807 170.863 129.586 171.496 129.699 172.209C129.818 172.916 130.285 173.677 131.099 174.492L131.515 174.907C131.249 174.427 131.156 173.937 131.235 173.439C131.32 172.936 131.561 172.486 131.956 172.09C132.307 171.74 132.7 171.51 133.136 171.403C133.566 171.29 133.999 171.298 134.434 171.428C134.87 171.558 135.271 171.807 135.639 172.175C136.018 172.554 136.273 172.973 136.403 173.431C136.533 173.878 136.539 174.33 136.42 174.789C136.301 175.235 136.055 175.646 135.682 176.019ZM135.045 175.467C135.424 175.088 135.608 174.661 135.597 174.186C135.591 173.705 135.39 173.267 134.994 172.871C134.604 172.481 134.168 172.283 133.687 172.277C133.207 172.26 132.777 172.441 132.398 172.82C132.019 173.199 131.835 173.632 131.846 174.118C131.857 174.593 132.058 175.026 132.449 175.416C132.845 175.812 133.28 176.016 133.755 176.027C134.236 176.033 134.666 175.846 135.045 175.467Z"
    fill="black" />
  <path
    d="M152.24 200.014L146.258 194.032L146.844 193.447L153.462 195.466L151.426 188.865L152.011 188.279L157.993 194.261L157.349 194.906L152.673 190.231L154.43 195.975L153.971 196.434L148.21 194.711L152.877 199.378L152.24 200.014ZM160.764 191.644C160.481 191.927 160.173 192.128 159.839 192.246C159.505 192.354 159.177 192.376 158.854 192.314C158.532 192.252 158.252 192.102 158.014 191.865C157.715 191.565 157.553 191.251 157.531 190.923C157.514 190.589 157.647 190.207 157.93 189.777C158.212 189.336 158.665 188.804 159.287 188.182L159.559 187.91L159.296 187.647C158.945 187.297 158.62 187.118 158.32 187.113C158.02 187.096 157.712 187.246 157.395 187.562C157.146 187.811 156.942 188.089 156.784 188.394C156.62 188.694 156.496 189.045 156.411 189.446L155.673 189.183C155.735 188.815 155.873 188.434 156.088 188.038C156.309 187.636 156.561 187.294 156.843 187.011C157.375 186.479 157.898 186.216 158.413 186.222C158.934 186.222 159.468 186.496 160.017 187.045L162.613 189.641L161.969 190.286L161.256 189.573C161.392 189.924 161.417 190.283 161.332 190.651C161.253 191.013 161.063 191.344 160.764 191.644ZM160.356 191.016C160.696 190.677 160.857 190.283 160.84 189.837C160.817 189.384 160.625 188.977 160.263 188.615L160.008 188.36L159.745 188.623C159.287 189.081 158.948 189.466 158.727 189.777C158.507 190.077 158.396 190.334 158.396 190.549C158.396 190.753 158.487 190.945 158.668 191.126C158.9 191.358 159.168 191.469 159.474 191.457C159.785 191.44 160.079 191.293 160.356 191.016ZM163.889 188.366L159.765 184.242L160.435 183.572L161.173 184.31C160.896 183.592 161.074 182.865 161.708 182.13L161.928 181.858L162.573 182.401L162.192 182.885C161.835 183.309 161.663 183.73 161.674 184.149C161.68 184.562 161.866 184.952 162.234 185.32L164.584 187.67L163.889 188.366ZM169.516 182.739L168.922 182.145L170.288 180.778L165.74 176.23L165.342 177.987L164.527 177.766L165.095 175.195L165.596 174.694L170.984 180.083L172.266 178.801L172.86 179.395L169.516 182.739ZM174.502 177.752L171.906 169.59L168.741 172.755L168.138 172.152L172.093 168.198L172.619 168.724L175.274 176.98L174.502 177.752Z"
    fill="black" />
  <path
    d="M200.24 200.721L194.258 194.739L194.844 194.154L201.462 196.173L199.426 189.572L200.011 188.986L205.993 194.968L205.349 195.613L200.673 190.938L202.43 196.682L201.971 197.141L196.21 195.418L200.877 200.085L200.24 200.721ZM209.324 191.791C208.673 192.442 207.969 192.767 207.211 192.767C206.447 192.761 205.737 192.43 205.081 191.774C204.657 191.35 204.368 190.892 204.216 190.399C204.057 189.902 204.037 189.418 204.156 188.948C204.275 188.468 204.53 188.032 204.92 187.642C205.48 187.082 206.099 186.824 206.778 186.87C207.451 186.909 208.102 187.243 208.73 187.871L208.993 188.134L205.887 191.239C206.379 191.686 206.874 191.91 207.372 191.91C207.864 191.904 208.331 191.681 208.772 191.239C209.021 190.991 209.222 190.716 209.375 190.416C209.522 190.111 209.609 189.769 209.638 189.39L210.359 189.636C210.348 189.998 210.249 190.374 210.062 190.764C209.87 191.149 209.624 191.491 209.324 191.791ZM205.446 188.134C205.056 188.524 204.869 188.954 204.886 189.424C204.903 189.893 205.09 190.346 205.446 190.781L207.949 188.278C207.514 187.876 207.078 187.661 206.642 187.633C206.212 187.599 205.814 187.766 205.446 188.134ZM211.905 189.057L207.781 184.933L208.452 184.263L209.19 185.001C208.913 184.282 209.091 183.556 209.724 182.82L209.945 182.549L210.59 183.092L210.208 183.575C209.852 184 209.679 184.421 209.69 184.84C209.696 185.253 209.883 185.643 210.251 186.011L212.601 188.361L211.905 189.057ZM217.533 183.429L216.939 182.835L218.305 181.469L213.757 176.921L213.358 178.677L212.544 178.457L213.112 175.886L213.613 175.385L219.001 180.773L220.282 179.492L220.876 180.086L217.533 183.429ZM224.191 176.924C223.517 177.597 222.85 177.976 222.188 178.061C221.52 178.14 220.924 177.917 220.398 177.391C220.03 177.023 219.815 176.61 219.753 176.152C219.696 175.688 219.787 175.241 220.024 174.811C219.611 174.998 219.196 175.052 218.777 174.973C218.358 174.893 217.988 174.693 217.665 174.37C217.162 173.867 216.95 173.298 217.029 172.665C217.108 172.02 217.45 171.395 218.056 170.789C218.661 170.184 219.286 169.842 219.931 169.763C220.57 169.678 221.141 169.887 221.645 170.391C221.967 170.713 222.168 171.089 222.247 171.519C222.327 171.938 222.273 172.348 222.086 172.749C222.516 172.512 222.96 172.424 223.418 172.486C223.877 172.549 224.29 172.764 224.657 173.131C225.183 173.657 225.407 174.254 225.328 174.922C225.243 175.584 224.864 176.251 224.191 176.924ZM220.796 173.53C221.209 173.117 221.436 172.699 221.475 172.274C221.515 171.839 221.368 171.454 221.034 171.12C220.695 170.781 220.313 170.637 219.888 170.688C219.464 170.727 219.046 170.953 218.633 171.366C218.22 171.779 217.993 172.198 217.954 172.622C217.909 173.041 218.056 173.42 218.395 173.759C218.729 174.093 219.111 174.243 219.541 174.209C219.965 174.169 220.383 173.943 220.796 173.53ZM223.614 176.347C224.586 175.374 224.697 174.512 223.944 173.759C223.203 173.018 222.346 173.134 221.373 174.107C220.4 175.08 220.284 175.937 221.025 176.678C221.778 177.43 222.641 177.32 223.614 176.347Z"
    fill="black" />
  <path
    d="M258.511 199.449L257.874 198.914L258.35 198.371C258.615 198.06 258.737 197.74 258.714 197.412C258.686 197.078 258.516 196.756 258.205 196.445L253.818 192.058L254.514 191.362L258.91 195.758C259.402 196.25 259.659 196.762 259.682 197.293C259.699 197.82 259.481 198.343 259.028 198.863L258.511 199.449ZM263.816 194.177C263.165 194.828 262.461 195.153 261.703 195.153C260.939 195.148 260.229 194.817 259.573 194.16C259.149 193.736 258.86 193.278 258.708 192.786C258.549 192.288 258.53 191.804 258.648 191.335C258.767 190.854 259.022 190.418 259.412 190.028C259.972 189.468 260.591 189.211 261.27 189.256C261.943 189.296 262.594 189.629 263.222 190.257L263.485 190.52L260.379 193.626C260.872 194.073 261.366 194.296 261.864 194.296C262.356 194.291 262.823 194.067 263.264 193.626C263.513 193.377 263.714 193.103 263.867 192.803C264.014 192.497 264.102 192.155 264.13 191.776L264.851 192.022C264.84 192.384 264.741 192.76 264.554 193.151C264.362 193.535 264.116 193.878 263.816 194.177ZM259.938 190.52C259.548 190.911 259.361 191.341 259.378 191.81C259.395 192.28 259.582 192.732 259.938 193.168L262.441 190.665C262.006 190.263 261.57 190.048 261.135 190.02C260.705 189.986 260.306 190.153 259.938 190.52ZM267.933 190.06C266.943 191.05 265.902 190.999 264.811 189.907L262.248 187.345L262.935 186.658L265.489 189.212C265.857 189.579 266.202 189.777 266.525 189.806C266.853 189.828 267.178 189.678 267.5 189.356C267.851 189.005 268.021 188.604 268.01 188.151C267.993 187.693 267.789 187.269 267.399 186.878L265.057 184.536L265.744 183.849L269.868 187.973L269.197 188.643L268.502 187.947C268.62 188.326 268.629 188.703 268.527 189.076C268.425 189.438 268.227 189.766 267.933 190.06ZM273.74 184.1L273.146 183.506L274.513 182.14L269.964 177.592L269.566 179.349L268.751 179.128L269.32 176.557L269.82 176.056L275.208 181.444L276.49 180.163L277.084 180.757L273.74 184.1ZM279.991 178.003C279.685 178.308 279.312 178.551 278.871 178.732C278.429 178.913 277.999 178.993 277.581 178.97L277.292 178.155C277.717 178.172 278.104 178.113 278.455 177.977C278.811 177.836 279.12 177.635 279.38 177.375C279.934 176.82 280.155 176.187 280.042 175.474C279.928 174.761 279.465 173.998 278.65 173.183L278.226 172.759C278.486 173.245 278.576 173.743 278.497 174.252C278.418 174.75 278.181 175.197 277.785 175.593C277.434 175.944 277.043 176.175 276.614 176.289C276.178 176.396 275.742 176.385 275.307 176.255C274.871 176.125 274.47 175.876 274.102 175.508C273.723 175.129 273.468 174.716 273.338 174.269C273.208 173.811 273.202 173.358 273.321 172.911C273.44 172.453 273.686 172.038 274.059 171.664C274.767 170.957 275.567 170.671 276.461 170.807C277.355 170.932 278.263 171.455 279.185 172.377C280.214 173.406 280.797 174.413 280.933 175.398C281.063 176.376 280.749 177.245 279.991 178.003ZM277.343 174.863C277.722 174.484 277.909 174.054 277.903 173.573C277.892 173.087 277.691 172.648 277.301 172.258C276.905 171.862 276.466 171.661 275.986 171.656C275.499 171.644 275.066 171.828 274.687 172.207C274.314 172.581 274.133 173.01 274.144 173.497C274.15 173.978 274.351 174.416 274.747 174.812C275.137 175.203 275.576 175.403 276.062 175.415C276.543 175.42 276.97 175.236 277.343 174.863Z"
    fill="black" />
  <path
    d="M310.09 197.457L301.495 194.089L302.241 193.342L309.539 196.244L306.628 188.955L307.358 188.225L310.718 196.83L310.09 197.457ZM315.418 192.283C314.767 192.933 314.063 193.258 313.305 193.258C312.541 193.253 311.831 192.922 311.175 192.266C310.751 191.841 310.462 191.383 310.31 190.891C310.151 190.393 310.131 189.91 310.25 189.44C310.369 188.959 310.624 188.524 311.014 188.133C311.574 187.573 312.193 187.316 312.872 187.361C313.545 187.401 314.196 187.735 314.824 188.362L315.087 188.625L311.981 191.731C312.473 192.178 312.968 192.401 313.466 192.401C313.958 192.396 314.425 192.172 314.866 191.731C315.115 191.482 315.316 191.208 315.469 190.908C315.616 190.603 315.703 190.26 315.732 189.881L316.453 190.127C316.442 190.489 316.343 190.866 316.156 191.256C315.964 191.641 315.718 191.983 315.418 192.283ZM311.54 188.625C311.15 189.016 310.963 189.446 310.98 189.915C310.997 190.385 311.184 190.837 311.54 191.273L314.043 188.77C313.608 188.368 313.172 188.153 312.736 188.125C312.307 188.091 311.908 188.258 311.54 188.625ZM317.999 189.548L313.875 185.425L314.546 184.754L315.25 185.459C315.126 185.063 315.123 184.675 315.242 184.296C315.36 183.917 315.575 183.572 315.886 183.261C316.865 182.282 317.897 182.336 318.984 183.422L321.555 185.993L320.867 186.68L318.339 184.152C317.954 183.767 317.598 183.563 317.27 183.541C316.941 183.507 316.613 183.654 316.285 183.982C315.906 184.361 315.722 184.783 315.734 185.246C315.745 185.699 315.946 186.12 316.336 186.511L318.687 188.861L317.999 189.548ZM325.12 182.428L324.594 181.902L324.433 177.65C324.404 177.045 324.322 176.55 324.187 176.165C324.057 175.775 323.856 175.444 323.584 175.173C322.888 174.477 322.136 174.533 321.327 175.342C320.722 175.948 320.414 176.709 320.402 177.625L319.596 177.345C319.591 176.898 319.69 176.437 319.893 175.962C320.097 175.475 320.388 175.043 320.767 174.664C321.367 174.064 321.966 173.747 322.566 173.713C323.166 173.668 323.723 173.903 324.238 174.418C324.594 174.774 324.857 175.212 325.027 175.733C325.191 176.248 325.284 176.878 325.307 177.625L325.417 180.943L328.336 178.024L328.93 178.618L325.12 182.428ZM332.066 175.634C331.382 176.319 330.598 176.576 329.716 176.406C328.833 176.237 327.894 175.654 326.899 174.658C325.897 173.657 325.315 172.718 325.151 171.841C324.987 170.965 325.247 170.184 325.931 169.499C326.621 168.809 327.402 168.549 328.273 168.719C329.144 168.877 330.081 169.457 331.082 170.458C332.083 171.459 332.666 172.404 332.83 173.292C333 174.175 332.745 174.955 332.066 175.634ZM331.464 175.032C331.939 174.557 332.089 174.005 331.913 173.377C331.744 172.744 331.235 172.003 330.386 171.154C329.538 170.305 328.805 169.799 328.188 169.635C327.566 169.465 327.015 169.621 326.534 170.102C326.059 170.577 325.903 171.129 326.067 171.756C326.237 172.379 326.743 173.111 327.586 173.954C328.435 174.803 329.173 175.315 329.801 175.49C330.434 175.66 330.989 175.507 331.464 175.032Z"
    fill="black" />
  <path
    d="M62.2235 200.738L56.2414 194.756L58.2609 192.737C59.2282 191.77 60.2323 191.28 61.2731 191.269C62.3084 191.252 63.3096 191.727 64.2769 192.694C65.2443 193.662 65.7223 194.666 65.711 195.707C65.6996 196.748 65.2103 197.752 64.243 198.719L62.2235 200.738ZM62.3253 199.449L63.5981 198.176C65.1594 196.615 65.1396 195.034 63.5387 193.433C61.9435 191.837 60.3652 191.82 58.8039 193.382L57.5311 194.655L62.3253 199.449ZM63.1924 189.468L62.4203 188.696L63.2688 187.848L64.0409 188.62L63.1924 189.468ZM68.4278 194.534L64.304 190.41L64.9913 189.723L69.1151 193.847L68.4278 194.534ZM70.417 192.545L66.2931 188.421L66.9635 187.751L67.6593 188.447C67.5348 188.073 67.5178 187.711 67.6083 187.36C67.6932 187.004 67.8827 186.679 68.1769 186.385C68.8217 185.74 69.5147 185.607 70.2557 185.986C70.12 185.601 70.1002 185.214 70.1963 184.823C70.2869 184.427 70.4905 184.071 70.8073 183.754C71.7237 182.838 72.725 182.923 73.8111 184.009L76.3821 186.58L75.6948 187.267L73.1577 184.73C72.7787 184.351 72.4336 184.142 72.1225 184.102C71.8114 184.051 71.5031 184.179 71.1976 184.484C70.8639 184.818 70.7168 185.202 70.7564 185.638C70.796 186.074 71.0138 186.489 71.4097 186.885L73.7432 189.219L73.0559 189.906L70.5188 187.369C70.1398 186.99 69.7947 186.781 69.4836 186.741C69.1725 186.69 68.8642 186.817 68.5587 187.123C68.2193 187.462 68.0694 187.85 68.109 188.285C68.1542 188.715 68.3748 189.128 68.7708 189.524L71.1043 191.858L70.417 192.545ZM80.2538 182.708L79.6598 182.114L81.026 180.748L76.4778 176.2L76.079 177.956L75.2644 177.736L75.833 175.165L76.3336 174.664L81.7217 180.052L83.003 178.771L83.597 179.365L80.2538 182.708ZM87.0387 176.076C86.654 176.461 86.2241 176.766 85.7489 176.992C85.2738 177.219 84.8014 177.34 84.3319 177.357L84.0434 176.543C84.9994 176.447 85.7885 176.087 86.4108 175.465C86.8237 175.052 87.033 174.611 87.0387 174.141C87.0444 173.672 86.8577 173.248 86.4787 172.869C86.0884 172.478 85.6556 172.272 85.1804 172.249C84.7053 172.226 84.2697 172.413 83.8737 172.809C83.3024 173.38 83.0902 174.068 83.2373 174.871L82.7282 175.38L79.1728 171.825L82.6433 168.354L83.2373 168.948L80.4541 171.732L82.5924 173.87C82.5924 173.214 82.8611 172.617 83.3985 172.079C83.7719 171.706 84.1763 171.46 84.6119 171.341C85.0475 171.222 85.4831 171.234 85.9186 171.375C86.3542 171.505 86.7615 171.76 87.1405 172.139C87.5139 172.512 87.7628 172.925 87.8872 173.378C88.0117 173.83 88.0032 174.291 87.8618 174.761C87.726 175.225 87.4517 175.663 87.0387 176.076Z"
    fill="black" />
  <path
    d="M14.2345 200.294C13.765 200.764 13.2813 201.129 12.7835 201.389C12.2801 201.644 11.7738 201.793 11.2647 201.839L10.9507 201.033C11.4598 200.965 11.9265 200.826 12.3508 200.617C12.775 200.408 13.1965 200.094 13.6151 199.675C14.1242 199.166 14.407 198.696 14.4636 198.266C14.5202 197.825 14.3929 197.449 14.0818 197.138C13.8329 196.889 13.5444 196.781 13.2163 196.815C12.8938 196.844 12.4809 197.025 11.9774 197.358L10.9168 198.063C10.2719 198.481 9.68923 198.696 9.1688 198.708C8.64837 198.708 8.17319 198.493 7.74327 198.063C7.38689 197.706 7.16627 197.305 7.08142 196.858C7.00222 196.405 7.05314 195.941 7.23415 195.466C7.41517 194.991 7.72064 194.539 8.15056 194.109C8.5522 193.707 8.99061 193.399 9.46578 193.184C9.9353 192.963 10.4076 192.853 10.8828 192.853L11.1798 193.642C10.6933 193.665 10.2577 193.766 9.87308 193.947C9.48275 194.123 9.11223 194.386 8.76151 194.737C8.31461 195.183 8.06288 195.644 8.00632 196.12C7.94409 196.589 8.08268 196.994 8.42209 197.333C8.69362 197.605 8.99061 197.737 9.31305 197.732C9.64115 197.72 10.0315 197.562 10.484 197.257L11.5532 196.561C12.2433 196.108 12.8458 195.868 13.3605 195.84C13.8753 195.8 14.3392 195.987 14.7521 196.4C15.0859 196.733 15.2895 197.118 15.3631 197.554C15.4422 197.984 15.3857 198.436 15.1933 198.911C15.0067 199.381 14.6871 199.842 14.2345 200.294ZM18.7252 195.804C18.4424 196.087 18.1341 196.287 17.8003 196.406C17.4666 196.514 17.1385 196.536 16.816 196.474C16.4936 196.412 16.2136 196.262 15.976 196.024C15.6762 195.724 15.5149 195.411 15.4923 195.082C15.4754 194.749 15.6083 194.367 15.8911 193.937C16.174 193.496 16.6265 192.964 17.2488 192.342L17.5203 192.07L17.2573 191.807C16.9065 191.456 16.5813 191.278 16.2815 191.273C15.9816 191.256 15.6733 191.405 15.3566 191.722C15.1077 191.971 14.904 192.248 14.7456 192.554C14.5816 192.854 14.4571 193.204 14.3723 193.606L13.634 193.343C13.6963 192.975 13.8349 192.593 14.0498 192.197C14.2704 191.796 14.5222 191.454 14.805 191.171C15.3368 190.639 15.86 190.376 16.3748 190.382C16.8952 190.382 17.4298 190.656 17.9785 191.205L20.575 193.801L19.9301 194.446L19.2174 193.733C19.3531 194.084 19.3786 194.443 19.2937 194.811C19.2145 195.173 19.025 195.504 18.7252 195.804ZM18.3179 195.176C18.6573 194.836 18.8186 194.443 18.8016 193.996C18.779 193.544 18.5866 193.136 18.2246 192.774L17.97 192.52L17.707 192.783C17.2488 193.241 16.9094 193.626 16.6887 193.937C16.4681 194.237 16.3578 194.494 16.3578 194.709C16.3578 194.913 16.4483 195.105 16.6293 195.286C16.8613 195.518 17.13 195.628 17.4355 195.617C17.7466 195.6 18.0407 195.453 18.3179 195.176ZM21.8671 192.509L17.7432 188.385L18.4136 187.715L19.1094 188.411C18.9849 188.037 18.9679 187.675 19.0585 187.325C19.1433 186.968 19.3328 186.643 19.627 186.349C20.2719 185.704 20.9648 185.571 21.7059 185.95C21.5701 185.565 21.5503 185.178 21.6465 184.787C21.737 184.391 21.9406 184.035 22.2574 183.718C23.1738 182.802 24.1751 182.887 25.2612 183.973L27.8322 186.544L27.1449 187.231L24.6078 184.694C24.2288 184.315 23.8838 184.106 23.5726 184.066C23.2615 184.015 22.9532 184.143 22.6477 184.448C22.314 184.782 22.1669 185.166 22.2065 185.602C22.2461 186.038 22.4639 186.453 22.8599 186.849L25.1933 189.183L24.506 189.87L21.9689 187.333C21.5899 186.954 21.2448 186.745 20.9337 186.705C20.6226 186.654 20.3143 186.781 20.0088 187.087C19.6694 187.426 19.5195 187.814 19.5591 188.249C19.6043 188.679 19.825 189.092 20.2209 189.488L22.5544 191.822L21.8671 192.509ZM31.7039 182.672L31.1099 182.078L32.4761 180.712L27.928 176.164L27.5292 177.92L26.7146 177.7L27.2831 175.129L27.7837 174.628L33.1719 180.016L34.4531 178.735L35.0471 179.329L31.7039 182.672ZM38.9385 175.438L37.6573 174.156L34.8996 176.914L34.3735 176.388L33.0752 169.337L33.6607 168.751L37.7676 172.858L38.6585 171.967L39.2525 172.561L38.3615 173.452L39.6428 174.733L38.9385 175.438ZM37.0633 173.562L34.1019 170.601L35.0268 175.599L37.0633 173.562Z"
    fill="black" />
</svg>
  